<svg width="466" height="144" viewBox="0 0 466 144" fill="none" xmlns="http://www.w3.org/2000/svg">
<path d="M-17.8216 133.128C-12.1222 130.656 -4.55033 128.088 0.934174 126.43C2.72578 125.883 1.94341 126.522 3.19812 126.158C5.70543 125.427 7.84795 124.515 10.2019 123.886C10.9916 123.676 10.2047 124.518 11.0297 124.287C15.6111 122.994 19.8325 121.453 24.3904 120.093C47.1829 113.302 69.1596 106.878 92.1176 100.296C99.773 98.1019 108.95 95.9078 116.694 93.4058C117.591 93.1152 116.917 92.8141 117.077 92.7256C119.608 91.3518 118.983 92.5436 120.787 92.1478C127.985 90.563 135.761 88.3341 142.497 86.1736C145.358 85.2544 142.208 85.1832 145.249 84.8515C145.459 84.8275 144.874 85.5284 145.676 85.3507C147.494 84.9469 150.859 83.8699 152.257 83.5039C154.951 82.8011 155.392 82.6671 157.923 81.9345C161.386 80.9368 165.561 79.982 169.235 78.7894C170.018 78.5335 168.825 78.3385 170.061 77.8852C171.299 77.4315 174.648 76.4996 175.809 76.2886C176.972 76.0769 176.606 76.6107 176.832 76.6426C178.698 76.9236 182.257 74.7391 182.745 74.5678C191.651 71.481 199.645 69.7896 208.112 67.2934C214.628 65.3712 221.346 63.1684 227.568 61.3467C234.859 59.2142 241.189 57.6139 248.225 55.4384C248.965 55.2099 247.919 54.8856 248.822 54.6055C258.535 51.5948 268.231 48.6958 277.894 46.1077C278.854 45.8513 277.794 46.7472 278.762 46.5219C284.964 45.0499 294.415 43.1481 297.317 39.7375C301.32 38.5374 306.141 37.051 309.905 36.2884C312.285 35.811 310.266 37.1085 312.967 35.935C313.572 35.6718 312.599 35.4585 313.516 35.1011C317.332 33.6128 322.045 32.1617 325.675 30.5904C326.426 30.265 326.09 29.8959 326.288 29.7374C328.065 28.3947 331.607 28.2863 332.303 28.1143C337.557 26.8192 341.448 25.0824 346.281 23.1209C347.422 22.6546 345.844 22.6371 346.925 22.1701C351.75 20.0748 357.486 17.5841 361.855 15.2411C362.275 15.0086 362.675 14.7889 363.054 14.5819C364.255 13.9282 363.461 15.0249 364.038 14.741C366.09 13.7956 367.146 11.8944 368.015 11.6175C367.921 11.754 367.72 11.9352 367.547 12.5897C367.47 12.9141 367.429 13.4125 367.607 13.9549C367.776 14.4983 368.176 14.9775 368.532 15.2257C369.272 15.7202 369.664 15.6693 369.887 15.6953C370.113 15.6996 370.212 15.6784 370.28 15.6658C370.416 15.6356 370.385 15.6278 370.391 15.6167C370.392 15.6058 370.391 15.5943 370.388 15.5821C370.379 15.5338 370.359 15.4749 370.343 15.4148C370.31 15.2949 370.285 15.1719 370.271 15.1501C368.79 14.8304 368.028 16.4086 367.559 16.6339C362.95 19.0659 359.554 19.4235 355.003 21.7435C354.434 22.0346 355.979 21.9361 354.367 22.7227C344.373 27.6209 333.423 32.6195 323.082 36.9066C321.488 37.5679 322.425 36.6615 322.304 36.6591C320.35 36.6548 319.75 38.15 319.245 38.4291C315.218 40.6185 311.198 41.439 308.877 43.9444C291.488 51.368 274.502 59.6681 256.692 65.8583C256.465 65.9386 256.652 65.2699 256.2 65.4322C250.788 67.3634 252.145 67.7117 249.025 70.1223C248.239 70.7286 245.062 70.681 244.787 70.6934C243.787 70.7374 244.385 69.6177 244.069 69.6766C241.468 70.183 242.879 72.5036 239.627 73.82C239.523 73.8569 239.766 73.2271 239.474 73.2918C238.569 73.4913 237.801 74.0119 236.907 74.1879C234.858 74.5858 233.695 73.6504 231.069 75.5062C230.737 75.7427 231.86 76.9359 228.918 78.0169C227.747 78.4491 222.602 80.4794 221.119 80.9401C219.637 81.4045 220.455 80.5654 220.344 80.5853C216.215 81.4732 217.597 80.6555 215.306 80.5008C213.018 80.3452 214.364 82.2714 213.657 82.8096C212.949 83.3486 209.904 83.916 209.138 84.0006C208.367 84.0883 209.14 83.47 208.475 83.604C204.077 84.4957 207.04 85.3392 205.792 86.1834C202.846 88.1741 199.769 87.4867 196.748 88.3833C195.926 88.6272 196.713 88.7567 196.007 89.0449C193.206 90.1786 191.326 90.2768 188.266 91.8361C187.772 92.0892 185.478 93.9424 183.528 93.8067C183.252 93.7853 183.804 93.1575 182.555 93.4746C180.688 93.9491 177.394 94.9302 175.502 95.6831C174.099 96.2413 175.969 96.3725 174.065 96.7532C173.219 96.921 174.61 96.0538 173.031 96.4002C171.458 96.7477 167.587 97.9653 166.129 98.4176C164.672 98.8731 165.624 99.1349 165.516 99.2047C164.878 99.6117 162.083 100.705 161.826 100.778C149.205 104.53 137.139 106.709 124.54 109.314C123.568 109.512 124.316 109.941 124.169 109.977C123.378 110.175 122.916 110.212 122.635 110.156C121.603 110.001 122.681 108.86 120.628 108.827C121.207 109.87 119.54 109.952 117.335 110.417C116.293 110.638 116.933 110.981 116.842 111.04C116.223 111.469 115.258 111.56 114.637 111.489C114.001 111.421 113.588 111.213 113.42 111.146C112.133 110.656 111.437 111.501 110.214 111.155C109.758 110.969 110.032 110.686 110.085 110.472C110.17 110.25 109.867 110.138 108.9 110.147C108.648 110.345 108.839 110.713 108.955 111.049C109.011 111.216 109.04 111.377 108.952 111.506C108.908 111.57 108.835 111.626 108.727 111.67C108.673 111.692 108.61 111.71 108.538 111.724C108.502 111.731 108.464 111.737 108.423 111.742C108.382 111.747 108.217 111.742 108.108 111.735C107.648 111.667 107.241 111.763 106.515 111.107C106.142 110.767 105.973 109.972 106.111 109.559C106.227 109.109 106.427 108.868 106.593 108.675C106.765 108.485 106.935 108.343 107.119 108.205C107.212 108.137 107.307 108.071 107.408 108.005C107.458 107.972 107.511 107.939 107.562 107.907C107.583 107.893 107.604 107.878 107.626 107.864C107.799 107.751 107.989 107.636 108.201 107.518C108.625 107.282 109.135 107.031 109.745 106.759C109.886 106.696 110.097 106.604 110.185 106.566C110.289 106.52 110.395 106.474 110.504 106.428C110.723 106.335 110.953 106.241 111.194 106.144C112.115 105.772 113.461 105.281 114.513 104.924C115.494 104.592 116.578 104.244 117.738 103.884C122.165 102.52 126.74 101.319 129.071 100.632C134.24 99.1077 135.897 98.534 138.86 97.7864C144.366 96.4014 142.352 96.1935 145.433 94.9002C148.616 93.5813 147.573 95.8979 148.162 96.1541C148.75 96.4111 149.145 95.8504 149.803 95.8929C150.46 95.9357 149.255 96.5845 150.676 96.2542C152.102 95.921 155.794 94.0731 156.083 93.539C156.844 92.3632 154.881 91.9333 158.599 91.2023C158.814 91.1606 158.274 91.8442 159.092 91.6595C165.81 90.1121 172.202 88.3034 178.884 86.7603C179.758 86.5618 179.142 87.3219 179.653 87.2124C185.012 86.0644 182.878 85.6845 185.526 83.8397C185.25 85.3753 187.089 85.7452 191.254 84.5798C193.639 83.9138 193.066 83.4392 194.506 82.586C194.937 82.3296 196.767 82.2525 197.003 81.8873C197.784 80.6905 195.853 80.1364 200.186 79.3588C200.377 79.326 199.924 79.9878 200.574 79.8382C204.819 78.8631 204.991 77.7925 209.365 76.4502C212.768 75.4049 219.296 74.2168 223.175 73.2462C223.51 74.7892 227.141 73.4112 228.383 71.9411C230.967 71.2743 233.826 70.4231 236.288 69.9021C237.149 69.7184 236.713 70.3117 236.833 70.3298C238.678 70.625 239.514 69.2989 240.056 69.1069C245.963 67.0672 251.139 66.482 256.637 64.1692C256.833 64.0863 256.874 62.9399 258.624 63.2914C258.738 63.3174 256.966 64.317 259.687 63.615C262.417 62.9102 267.687 62.0837 271.284 60.5807C272.159 60.2165 274.223 58.7346 276.256 58.9028C276.527 58.9269 276.339 59.3033 276.741 59.3754C278.038 59.6007 278.377 58.3618 279.979 58.9018C281.595 59.4382 284.557 59.3649 288.171 57.7153C288.287 57.6644 288.953 56.5754 290.149 56.2666C292.056 55.7746 294.81 55.2202 296.803 54.6765C297.757 54.4159 297.004 54.0549 297.167 54.0005C303.479 51.9814 308.146 51.2276 315.069 49.5852C316.334 49.2863 319.751 47.5996 322.335 47.5145C325.172 47.4193 323.121 50.7378 329.093 48.4775C331.5 47.5689 333.765 43.4496 338.672 43.9573C347.172 41.2341 355.439 39.9607 363.893 37.0675C364.272 36.9383 365.258 35.696 366.185 35.4628C367.558 35.1195 368.421 35.3482 369.402 35.1176C373.515 34.1623 377.132 32.8105 381.035 31.8362C382.539 31.4595 382.135 32.0402 383.929 31.5909C385.722 31.1419 386.757 30.2442 389.237 29.8885C391.11 29.6221 393.236 30.3335 395.663 29.84C395.448 28.64 397.071 28.2365 399.977 27.1366C400.532 26.9257 399.812 26.6785 400.069 26.5576C401.111 26.0567 402.215 26.1278 403.191 25.6244C403.429 25.5026 403.335 25.0983 403.523 24.9762C405.122 23.9218 408.229 24.0672 408.76 24.0951C410.803 24.1944 411.528 23.4451 413.043 23.2972C414.579 23.1435 412.452 24.0182 414.211 23.707C417.857 23.0613 422.367 21.8045 425.897 20.8957C427.305 20.5306 426.204 20.2474 426.403 20.1827C429.257 19.2866 432.506 19.0422 433.844 17.55C436.614 19.7721 435.569 16.8107 439.882 16.2694C440.221 16.2283 440.981 17.4237 439.773 17.9452C438.565 18.4668 436.538 18.5628 434.844 19.327C434.444 19.5067 432.351 21.3637 432.037 21.5252C429.595 22.7857 428.705 20.9354 428.541 20.8642C426.712 20.1093 424.17 22.1863 423.422 22.4805C420.022 23.8213 416.929 24.3428 414.012 25.4301C412.119 26.1352 412.297 27.4539 410.778 27.8126C405.741 29.0036 403.504 27.6891 399.118 30.5005C398.182 31.1005 399.542 32.2334 395.641 32.0915C395.396 32.0822 392.439 31.7907 391.043 32.8397C390.867 32.9717 390.981 33.3767 390.731 33.4794C389.054 34.1601 387.807 34.1436 385.946 34.8027C384.086 35.4619 381.846 36.3032 379.676 36.7315C378.36 36.9923 376.494 36.6769 375.822 36.6566C373.925 36.5885 372.269 37.9661 371.004 37.6096C369.729 37.2525 371.623 35.6921 368.618 36.0409C368.792 37.1255 368.834 38.275 368.944 39.383C362.588 41.0328 356.342 42.3304 349.98 44.0777C349.194 44.2949 350.15 44.6477 349.313 44.8946C345.796 45.9299 342.587 46.3533 338.945 47.4998C336.128 48.3892 333.152 49.8294 330.216 50.7782C328.072 50.0578 323.759 51.6538 320.517 52.4057C319.382 52.6696 319.37 52.3269 318.542 52.4365C315.42 52.8579 317.121 53.5453 316.339 53.9354C312.974 55.6082 312.019 53.2749 307.847 54.4618C307.625 54.5239 305.262 56.541 304.911 56.7216C302.683 57.8827 304.398 56.3792 302.89 56.6836C300.142 57.238 298.17 57.44 295.081 58.6785C294.181 59.0413 292.17 60.4453 290.204 60.3113C289.945 60.294 289.961 59.8332 289.764 59.8598C286.205 60.3767 286.479 61.7374 284.638 62.7216C282.811 63.7019 279.472 63.6168 278.785 63.5177C276.971 63.2713 279.953 62.8855 280.023 62.7939C280.843 61.7095 278.646 62.4534 276.927 62.847C276.324 61.6037 273.97 62.3272 275.147 63.2602C275.28 63.361 276.569 62.8799 276.927 62.847C275.782 64.5379 273.217 65.4111 270.024 64.9893C268.527 64.7919 269.627 63.7871 265.605 65.1398C263.759 65.7589 264.729 66.4636 263.145 67.1594C259.526 68.7482 254.436 69.2336 250.658 70.4101C249.253 70.8464 250.769 70.9618 249.814 71.277C247.279 72.1149 244.923 72.3625 242.424 73.2522C242.198 73.3334 242.904 73.6951 242.113 73.9192C236.189 75.6101 230.74 76.7549 224.507 78.4685C221.55 79.2811 216.099 81.099 212.952 81.9132C207.562 83.3081 200.532 84.4647 195.987 85.9386C193.027 86.8964 193.835 87.2263 192.662 87.9356C190.318 89.3303 185.47 89.3843 184.839 89.3595C184.816 89.3592 187.397 88.4974 185.926 88.6279C184.959 88.306 184.868 89.3488 184.839 89.3595C184.386 89.3555 179.282 90.6783 178.249 91.08C177.686 91.2987 178.148 91.6947 177.853 91.7994C170.894 94.2558 163.974 96.3818 156.982 98.1784C156.859 98.2035 156.88 97.6058 156.594 97.6718C152.452 98.6207 149.877 100.106 146.79 101.455C143.64 102.824 140.713 103.563 138.555 103.201C136.313 104.009 132.181 104.833 130.168 105.193C128.082 105.575 128.219 106.694 128.001 106.786C122.244 109.376 119.033 109.703 113.32 111.781C113.015 111.896 112.727 112.008 112.38 112.153C111.895 112.356 111.451 112.556 111.109 112.726C110.939 112.811 110.795 112.888 110.689 112.95C110.635 112.981 110.594 113.006 110.559 113.029C110.483 113.075 110.474 113.094 110.593 113.004C110.708 112.897 110.983 112.745 111.427 112.001C111.636 111.625 111.891 111.046 111.943 110.238C112.021 109.497 111.728 108.3 111.224 107.617C110.158 106.191 109.342 106.137 109.051 106.009C108.725 105.922 108.696 105.939 108.759 105.936C108.863 105.931 109.216 105.921 109.702 105.877C110.168 105.838 110.923 105.752 111.218 105.705C112.021 105.591 112.933 105.444 113.768 105.3C116.543 104.813 117.413 104.928 119.945 104.341C120.275 104.263 119.856 103.834 119.955 103.799C120.705 103.504 121.182 103.397 121.469 103.405C122.085 103.445 121.695 104.186 122.085 104.275C124.061 104.718 125.285 104.927 128.468 103.919C129.194 103.689 131.093 101.528 132.349 101.149C134.044 100.648 133.525 101.399 135.313 100.843C135.467 100.795 135.348 100.431 136.482 100.187C141.858 99.0224 147.455 97.8153 152.917 96.2618C153.647 96.0554 152.548 95.7304 153.599 95.4217C158.549 93.9676 164.057 92.3506 168.969 91.1128C170.188 90.807 169.565 91.4477 169.863 91.4868C171.691 91.7159 173.639 89.9268 173.983 89.793C182.625 86.4438 189.722 85.0692 198.509 81.4078C198.985 81.2085 202.314 78.7355 204.337 79.0765C204.473 79.0992 206.497 79.4675 207.704 78.2563C207.778 78.1807 206.567 78.058 208.373 77.4441C210.179 76.8295 212.929 75.4112 215.598 75.0248C216.441 74.9024 218.66 75.1704 220.676 73.4994C220.808 73.3876 223.697 70.2495 225.442 70.9547C225.726 71.0718 226.013 72.4354 228.514 70.6924C228.99 70.3574 227.922 70.4512 229.239 69.7246C231.256 68.609 234.215 67.8223 236.591 66.2039C237.005 65.9202 238.586 64.2765 240.397 64.3011C240.681 64.3049 240.394 64.9164 241.229 64.631C245.237 63.2609 249.181 61.2985 253.232 59.9457C254.68 59.4598 254.249 60.4434 255.787 60.012C257.327 59.5805 260.332 58.5169 261.711 57.5623C263.089 56.6076 260.979 56.2248 263.2 55.1751C272.997 50.5452 282.909 46.9526 292.83 42.6195C294.274 41.9889 292.912 42.1377 295.019 41.1825C302.976 37.5847 316.428 30.974 323.537 28.6446C329.411 26.7009 322.652 30.454 327.008 28.7458C329.099 27.9243 330.621 25.6975 331.072 25.4385C335.81 22.7334 339.218 21.7981 343.445 19.5964C344.286 19.1569 343.21 19.0502 343.924 18.6834C346.42 17.3979 349.297 16.3117 351.673 15.1403C352.824 14.5734 352.431 14.2891 353.471 13.8352C355.765 12.8357 358.325 11.8303 360.61 11.2127C360.726 11.1791 360.485 11.4458 360.446 11.6174C360.424 11.7042 360.447 11.7696 360.578 11.7669C360.648 11.7639 360.724 11.7534 360.874 11.702C361.034 11.6462 361.237 11.5638 361.488 11.4512C362.298 11.0863 363.101 10.7533 363.85 10.4548C364.166 10.3318 364.733 10.0989 365.201 9.91345C365.678 9.72416 366.116 9.55439 366.515 9.40293C366.621 9.36289 366.695 9.33549 366.824 9.28612C367.001 9.2175 367.171 9.15326 367.335 9.09279C367.664 8.97158 367.962 8.86681 368.307 8.76423C368.394 8.73852 368.486 8.71282 368.586 8.68684C368.636 8.67386 368.689 8.6608 368.745 8.64767C368.759 8.64439 368.773 8.6411 368.788 8.63782C368.839 8.62589 368.963 8.59903 369.071 8.58004C369.302 8.54156 369.577 8.49249 370.077 8.49775C370.569 8.54352 371.388 8.45433 372.796 9.41186C373.474 9.89109 374.188 10.7915 374.479 11.759C374.785 12.7264 374.717 13.5911 374.589 14.1722C374.3 15.342 373.932 15.7338 373.709 16.0594C373.595 16.2098 373.477 16.3431 373.411 16.4153C373.395 16.4326 373.38 16.4493 373.365 16.4655C373.243 16.5945 373.141 16.6925 373.048 16.7789C372.681 17.1125 372.415 17.3097 372.098 17.545C371.943 17.6589 371.774 17.7798 371.608 17.8964C371.527 17.956 371.443 18.0172 371.357 18.0802C371.184 18.2062 371.002 18.3395 370.809 18.4812C370.423 18.7644 369.993 19.0817 369.52 19.4364C368.612 20.1414 369.319 20.8532 366.758 21.6178C366.392 21.7301 366.283 21.1675 365.602 21.4979C365.31 21.6321 364.913 21.9768 364.24 22.746C363.982 23.1238 360.041 26.6885 357.651 26.7916C357.005 26.8386 355.083 26.6658 353.876 27.3555C353.729 27.4459 354.568 27.6488 353.627 28.1141C350.309 29.7448 346.172 31.3548 342.666 32.8827C341.68 33.3111 343.372 33.2371 341.887 33.8614C337.512 35.686 332.839 37.2447 328.502 38.6042C327.055 39.0498 327.892 38.2794 327.772 38.2704C325.837 38.1161 325.174 39.4776 324.625 39.7356C321.214 41.3198 318.107 41.8509 314.998 43.04C314.11 43.3765 314.91 43.6439 314.745 43.7472C313.02 44.795 314.121 43.4609 312.903 43.7634C309.474 44.6121 305.655 45.9148 302.389 47.0472C301.162 47.4724 302.733 47.5816 301.628 47.9572C294.928 50.2427 288.271 52.2995 281.536 54.0682C280.327 54.3815 280.941 53.7133 280.661 53.692C278.736 53.5341 276.491 55.2702 275.929 55.5431C273.384 56.7845 272.215 56.7252 269.839 57.5366C258.48 61.4328 243.983 65.5243 233.064 68.6047C218.692 72.6654 207.597 75.4785 193.989 79.5846C193.124 79.845 194.166 80.1694 193.426 80.4004C183.882 83.3483 174.316 85.8946 164.739 88.8714C163.952 89.1148 165.252 89.3324 163.995 89.7416C161.417 90.5845 158.104 91.5189 155.422 92.1111C154.114 92.4011 155.697 91.4266 154.383 91.7282C151.32 92.4302 148.105 93.3264 145.029 94.3208C143.722 94.7448 145.876 94.726 144.164 95.2333C132.524 98.6951 121.173 102.124 109.163 104.879C108.342 105.067 107.297 104.133 105.655 104.857C105.62 105.212 105.737 105.583 105.781 105.938C88.8974 111.131 72.0605 115.736 55.1656 120.886C54.4442 121.107 55.8751 121.325 54.4809 121.754C46.5245 124.206 38.7848 126.821 30.5385 128.823C29.7007 129.029 29.7686 127.839 27.4264 128.776C27.0053 128.943 23.5007 130.244 22.6865 130.767C22.5759 130.842 23.3717 131.125 22.2565 131.508C15.5067 133.816 8.53095 136.056 1.89831 138.083C0.854499 138.4 1.76097 137.49 1.01723 137.712C-4.5854 139.402 -10.2027 141.95 -15.3189 143.491C-18.6987 144.513 -17.9742 143.187 -20.1253 143.079C-20.4497 143.07 -22.4806 143.937 -22.7903 143.481C-23.6172 142.345 -23.258 140.538 -24.2519 139.378C-24.488 139.131 -26.9692 140.635 -25.7335 139.234C-25.659 139.141 -23.7877 138.029 -23.3633 137.568C-23.0777 137.249 -23.9441 137.018 -23.3023 136.492C-22.6539 135.964 -21.6521 136.043 -20.4544 135.255C-19.3252 134.497 -20.1646 134.151 -17.8216 133.128ZM120.608 107.052C118.358 107.249 118.702 109.187 120.77 107.998C120.872 107.937 120.726 107.04 120.608 107.052ZM355.977 40.9111C353.2 40.7638 351.771 42.4499 353.748 42.6081C355.723 42.766 356.822 40.9549 355.977 40.9111ZM382.287 33.2699C379.128 33.4082 379.375 36.195 382.418 34.8114C382.597 34.7312 382.474 33.2611 382.287 33.2699ZM-11.8642 139.432C-11.9055 139.419 -13.4587 140 -13.4803 140.037C-14.073 140.933 -10.9786 139.774 -11.8642 139.432ZM408.443 25.6462C407.422 25.5298 404.85 26.6542 406.125 26.797C407.154 26.9112 409.716 25.7901 408.443 25.6462ZM196.35 87.5175C196.39 87.5345 197.512 87.1633 197.431 87.0182C197.184 86.5467 195.684 87.2369 196.35 87.5175ZM453.16 13.8621C446.583 15.476 441.899 14.3498 449.224 12.6967C450.542 12.3997 446.59 14.137 448.307 13.8997C451.446 13.4644 453.081 11.5587 456.298 11.5095C456.884 11.501 453.542 13.7733 453.149 13.8682C453.153 13.8661 453.157 13.8641 453.16 13.8621ZM118.664 105.243C118.601 105.236 117.015 105.754 117.001 105.787C116.354 106.662 119.528 105.624 118.664 105.243ZM260.504 63.6766C260.611 63.6922 264.091 62.2717 264.181 62.1774C265.589 60.4836 258.559 63.3507 260.504 63.6766ZM223.248 73.2696C224.777 72.2027 226.8 71.5682 228.375 71.9425C226.659 72.3728 224.952 72.8382 223.248 73.2696Z" fill="white"/>
</svg>
