<svg width="31" height="33" viewBox="0 0 31 33" fill="none" xmlns="http://www.w3.org/2000/svg">
<g filter="url(#filter0_g_56_1428)">
<path fill-rule="evenodd" clip-rule="evenodd" d="M24.8063 1.32816C25.1663 1.36503 25.0405 1.51729 25.2367 1.65363C25.2656 1.67261 25.486 1.66746 25.5012 1.75046C25.5029 1.75993 25.5024 1.76992 25.5036 1.7795C25.5497 1.78148 25.5982 1.78835 25.6498 1.80538C25.6788 1.81511 25.5976 1.87684 25.5057 1.93602C25.5022 1.98539 25.4968 2.03553 25.4911 2.08595C25.499 2.08451 25.5072 2.08488 25.5152 2.0838C25.517 2.03774 25.5246 1.98919 25.5411 1.9376C25.5509 1.90943 25.6133 1.98911 25.673 2.07987C25.8309 2.08969 25.9967 2.12592 26.1553 2.08629C26.2031 2.07415 26.1367 1.78067 26.2627 1.94991C26.2714 1.96313 26.3206 2.17389 26.3628 2.22558C26.3922 2.26102 26.4748 2.19091 26.514 2.2641C26.5527 2.33745 26.4853 2.4244 26.5329 2.54681C26.5812 2.6691 26.6761 2.60964 26.7006 2.85779C26.7567 3.43486 26.7684 4.19468 26.7602 4.77294C26.7578 4.95409 26.6995 4.86619 26.6953 4.99112C26.6875 5.23579 26.725 5.46164 26.7131 5.70364C26.7089 5.78388 26.6208 5.69003 26.6181 5.77375C26.605 6.2343 26.6488 6.66729 26.6551 7.1328C26.6808 9.01842 26.7439 10.8762 26.8109 12.7659C26.8364 12.7653 26.8651 12.7608 26.8696 12.8077C26.9026 13.1651 26.8549 13.4814 26.8997 13.8514C26.9349 14.1377 27.0467 14.4482 27.0864 14.7475C26.9039 14.9411 26.9917 15.3842 26.991 15.7092C26.9908 15.8229 26.9392 15.8184 26.9266 15.8998C26.8806 16.2071 27.0428 16.0567 27.074 16.1384C27.1427 16.3211 27.0724 16.4226 26.9937 16.537C27.0043 16.5345 27.0123 16.5312 27.0146 16.5363C27.1216 16.8061 26.9687 16.7231 26.9581 16.9031C26.9545 16.9663 26.9542 17.0305 26.9517 17.0948C27.0129 17.1738 27.0817 17.2631 27.091 17.2847C27.1866 17.5197 27.0225 17.3292 27.015 17.4794C27.0016 17.7541 26.9628 17.9467 27.0393 18.2641C27.0619 18.3567 27.2006 18.575 27.1115 18.7618C27.0999 18.7863 27.0324 18.7771 27.029 18.7963C26.981 19.1479 27.1942 19.1461 27.2767 19.3412C27.3589 19.5364 27.2277 19.8514 27.1885 19.9165C27.0875 20.0858 27.1353 19.7932 27.1241 19.7849C27.0619 19.7395 27.0374 19.7645 27.0275 19.8211C27.0336 19.9268 27.0401 20.0239 27.0406 20.0841C27.0406 20.0881 27.0407 20.0922 27.0407 20.096C27.2369 20.2386 27.2695 20.4934 27.0987 20.7852C27.0868 20.8056 27.0734 20.8199 27.0608 20.8316C27.0645 21.0015 27.0675 21.1819 27.0715 21.3622C27.1137 21.3847 27.1571 21.4075 27.1798 21.4849C27.2471 21.7156 27.2308 21.9942 27.2186 22.265C27.2202 22.3541 27.2206 22.4351 27.2154 22.481C27.2151 22.4842 27.2124 22.4873 27.212 22.4903C27.2109 22.5792 27.2126 22.6654 27.2212 22.7468C27.2363 22.8871 27.3078 22.7464 27.321 22.8415C27.3557 23.0971 27.3084 23.3275 27.3519 23.5838C27.3564 23.6064 27.4359 23.5459 27.4413 23.6255C27.4825 24.2329 27.4567 24.7654 27.4883 25.4002C27.5036 25.7069 27.578 26.2528 27.5854 26.571C27.5988 27.1224 27.5139 27.8064 27.5674 28.2753C27.6019 28.581 27.6809 28.5099 27.7438 28.6381C27.8656 28.8859 27.6948 29.3452 27.6675 29.408C27.6655 29.4002 27.6324 29.1496 27.5982 29.2894C27.5154 29.3749 27.6638 29.4045 27.6675 29.408C27.6504 29.4512 27.6588 29.9749 27.6798 30.0801C27.6913 30.1363 27.7674 30.1017 27.7728 30.1303C27.8153 30.4107 27.8494 30.6926 27.8756 30.9748L27.9026 31.7866L27.1206 31.7114C26.6954 31.6966 26.2697 31.6633 25.8427 31.609C25.831 31.6052 25.8559 31.5203 25.8267 31.5155C25.4162 31.4455 25.1429 31.5322 24.7971 31.5696C24.4516 31.6069 24.1829 31.5647 23.9924 31.3999C23.7337 31.3993 23.3695 31.3049 23.1601 31.2487C22.9513 31.1928 22.9082 31.3601 22.8892 31.3624C22.2984 31.4254 21.9685 31.303 21.365 31.2421C21.0781 31.2128 20.5058 31.1939 20.1931 31.1888C19.9463 31.1851 19.8011 31.1339 19.5728 31.142C19.542 31.1431 19.5664 31.2209 19.557 31.2236C19.298 31.2944 19.4322 31.1201 19.3834 31.0827C19.2032 30.9485 19.0906 30.8754 18.7625 30.9072C18.6868 30.9145 18.4487 31.1634 18.3113 31.1686C18.1329 31.1748 18.2065 31.0852 18.0195 31.0942C18.0037 31.0955 18.0019 31.154 17.8883 31.1428C17.3579 31.0913 16.7814 31.0126 16.229 30.9766C16.1535 30.9715 16.2426 31.0722 16.1338 31.0665C15.6217 31.0387 15.0614 30.9931 14.5666 30.9117C14.4452 30.8914 14.5258 30.8321 14.5014 30.8105C14.347 30.6811 14.1026 30.8333 14.0638 30.8339C13.1456 30.8466 12.4589 30.6393 11.5238 30.6423C11.4717 30.6432 11.0692 30.7952 10.9076 30.6257C10.894 30.6117 10.7359 30.4428 10.5771 30.5393C10.5672 30.5455 10.6675 30.6358 10.4815 30.6133C10.2952 30.5907 9.99014 30.6229 9.74006 30.5129C9.66085 30.4781 9.48013 30.3039 9.22789 30.4128C9.21047 30.4211 8.81554 30.6797 8.69671 30.4719C8.67771 30.4371 8.71522 30.2288 8.41791 30.3145C8.36127 30.3312 8.45765 30.3851 8.31008 30.4034C8.0833 30.4316 7.79145 30.3533 7.50978 30.4262C7.46063 30.4391 7.24591 30.5662 7.0906 30.4455C7.06671 30.4264 7.11964 30.36 7.03408 30.3457C6.62646 30.2769 6.19307 30.2915 5.77999 30.2113C5.63361 30.183 5.71733 30.0755 5.5657 30.0334C5.41401 29.9913 5.1058 29.9383 4.94078 29.9779C4.77655 30.0179 4.93809 30.2112 4.69622 30.2075C3.82305 30.1937 2.96518 30.0647 2.1016 29.9668L1.27962 29.8883L1.3118 29.0967C1.32241 28.9169 1.33163 28.7364 1.33822 28.5561C1.34382 28.4009 1.27602 28.528 1.2797 28.2989C1.29324 27.4521 1.26465 25.989 1.41848 25.2573C1.5417 24.6715 1.60932 25.4131 1.66403 24.9646C1.69 24.7483 1.48477 24.5091 1.47883 24.4562C1.42254 23.943 1.52381 23.589 1.5052 23.1278C1.50119 23.033 1.41432 23.1234 1.41174 23.043C1.40294 22.7662 1.44751 22.4755 1.44626 22.2112C1.44532 22.0931 1.37939 22.113 1.38679 22.0041C1.40376 21.7435 1.43579 21.5131 1.50244 21.2601C1.50894 21.2383 1.58632 21.3944 1.59356 21.2023C1.60502 20.8898 1.67399 20.5026 1.61946 20.1417C1.60271 20.035 1.45462 20.0271 1.56222 19.8006C1.58516 19.7533 1.76217 19.8175 1.61373 19.5477C1.58862 19.5014 1.39019 19.0478 1.52943 18.8307C1.56671 18.773 1.71518 18.6282 1.69498 18.4998C1.69105 18.4831 1.61054 18.5496 1.60486 18.4442C1.58684 18.0689 1.60389 17.6753 1.58714 17.2898C1.58214 17.1883 1.49613 17.3379 1.49189 17.1849C1.48011 16.7633 1.51279 16.2378 1.54767 15.8266C1.56074 15.6752 1.62691 15.7809 1.63462 15.77C1.75986 15.595 1.59883 15.4862 1.59054 15.427C1.5413 15.0591 1.62443 14.7813 1.61139 14.4428C1.60788 14.3496 1.52759 14.4137 1.52102 14.395C1.4572 14.2012 1.59469 14.3471 1.61283 14.2255C1.66405 13.8849 1.66605 13.5036 1.66355 13.158C1.66229 13.0319 1.56845 13.1717 1.5685 13.0581C1.56749 12.3837 1.59152 11.6824 1.65583 11.0256C1.66824 10.9027 1.73627 10.9813 1.75277 10.9558C1.8677 10.7805 1.72201 10.5174 1.70846 10.4566C1.64823 10.1826 1.7121 10.0774 1.70586 9.83641C1.67398 8.65804 1.74689 7.20488 1.79629 6.09432C1.84872 4.90832 1.91928 3.94013 1.94999 2.86925L1.9808 2.11788L2.70201 2.10146C2.93767 2.09323 3.17879 2.08344 3.42757 2.0699C3.51461 2.06499 3.42312 1.97554 3.49853 1.97031C4.47351 1.90703 5.43629 1.90294 6.41304 1.83512C6.49221 1.82942 6.37379 1.74703 6.50183 1.73537C6.76535 1.71091 7.10024 1.70112 7.36849 1.71802C7.49932 1.72612 7.32832 1.8088 7.45998 1.81539C7.76644 1.83091 8.09392 1.82404 8.4069 1.79679C8.54003 1.78498 8.33538 1.70345 8.50884 1.69514C9.69031 1.63667 10.8504 1.57179 12.0496 1.63836C12.1318 1.64298 12.2115 1.82317 12.3841 1.78076C12.395 1.72953 12.3918 1.66981 12.3952 1.61544C14.1147 1.51407 15.8206 1.50594 17.5465 1.44344C17.6191 1.4407 17.4895 1.34952 17.6303 1.34389C18.4456 1.31115 19.2361 1.25035 20.074 1.31182C20.1571 1.3178 20.1223 1.49034 20.365 1.45431C20.4103 1.44756 20.7734 1.40969 20.8667 1.36888C20.8788 1.36232 20.8097 1.28587 20.9273 1.27854C21.6143 1.23763 22.3358 1.2256 23.0241 1.24548C23.135 1.24885 23.0216 1.33801 23.1 1.3414C23.6617 1.36297 24.2682 1.27356 24.8063 1.32816ZM25.0306 2.79169C24.9079 2.8388 24.9666 2.93428 24.7181 2.95622C24.1404 3.00651 23.3803 3.00992 22.8021 2.99589C22.6211 2.99159 22.7102 2.93462 22.5852 2.92926C22.3404 2.9189 22.1139 2.95441 21.8718 2.93999C21.7918 2.93489 21.8873 2.84789 21.8038 2.84432C21.3431 2.82649 20.9088 2.86557 20.443 2.86723C18.5572 2.87385 16.6991 2.91838 14.8088 2.96651C14.8092 2.99225 14.8143 3.02121 14.767 3.02519C14.4094 3.05455 14.0936 3.00325 13.7231 3.04441C13.4363 3.07666 13.1242 3.18511 12.8245 3.22182C12.6325 3.03766 12.189 3.12169 11.8641 3.11773C11.7508 3.11634 11.7559 3.06493 11.6749 3.05148C11.3678 3.00236 11.5167 3.16526 11.4348 3.19572C11.2508 3.26289 11.1498 3.19163 11.0358 3.11142C11.0382 3.12233 11.0426 3.13015 11.0374 3.13244C10.7662 3.23688 10.8508 3.08415 10.6703 3.07192C10.6068 3.06765 10.5425 3.06662 10.4779 3.0635C10.3979 3.12404 10.3082 3.19245 10.2874 3.20068C10.0514 3.29393 10.2444 3.13179 10.0939 3.12291C9.8193 3.1067 9.62691 3.06572 9.30851 3.13915C9.21551 3.16101 8.99646 3.29752 8.81064 3.20641C8.78633 3.1944 8.79646 3.12653 8.77724 3.12308C8.42606 3.07157 8.42521 3.28488 8.2292 3.36534C8.03303 3.44554 7.719 3.31201 7.65465 3.2723C7.48775 3.17036 7.77613 3.21954 7.78714 3.20905C7.8335 3.14689 7.80839 3.12199 7.75103 3.11146C7.64542 3.11646 7.5485 3.12183 7.48847 3.1217C7.48414 3.12169 7.47984 3.12168 7.47562 3.12167C7.33108 3.31621 7.07731 3.34755 6.78735 3.1739C6.76647 3.16136 6.75187 3.14795 6.74009 3.13486C6.57021 3.13673 6.38974 3.13747 6.20951 3.13965C6.18668 3.18163 6.16448 3.22513 6.08692 3.24696C5.85338 3.3125 5.5721 3.29338 5.29907 3.27864C5.21332 3.27909 5.13589 3.27817 5.09142 3.27278C5.0891 3.27249 5.08701 3.27108 5.08482 3.27075C4.99479 3.26868 4.90743 3.26853 4.82493 3.27647C4.68404 3.29013 4.82474 3.36299 4.72843 3.37502C4.4725 3.40707 4.24308 3.35705 3.98641 3.39806C3.96387 3.40243 4.02366 3.48184 3.94391 3.4863C3.73166 3.49854 3.5286 3.50287 3.32724 3.50428C3.32108 3.81344 3.35357 4.35274 3.3378 4.66643C3.3105 5.21735 3.17624 5.8934 3.19507 6.36501C3.20705 6.67237 3.29054 6.60764 3.34383 6.74024C3.44672 6.99639 3.24249 7.44069 3.21068 7.50126C3.20903 7.49006 3.19496 7.24284 3.1509 7.37821C3.06339 7.45615 3.20282 7.49642 3.21068 7.50126C3.19033 7.54105 3.16106 8.06806 3.17446 8.17369C3.18194 8.23025 3.25927 8.20113 3.26251 8.22999C3.31705 8.93753 3.32144 9.646 3.26941 10.3613C3.26633 10.3732 3.18077 10.3533 3.17713 10.3824C3.12937 10.7958 3.23037 11.0638 3.28639 11.4068C3.34236 11.75 3.31503 12.0213 3.16082 12.2204C3.17404 12.4785 3.09991 12.8467 3.05507 13.0589C3.01039 13.2702 3.17842 13.3051 3.18254 13.324C3.27732 13.9105 3.17292 14.2464 3.14461 14.8522C3.13087 15.1402 3.14362 15.7127 3.15544 16.0252C3.16504 16.2721 3.12136 16.4201 3.14185 16.6478C3.14465 16.6784 3.22053 16.6499 3.22416 16.6588C3.30884 16.9134 3.1279 16.7894 3.09297 16.8399C2.96873 17.027 2.9015 17.1433 2.95084 17.469C2.96216 17.5442 3.22439 17.7684 3.2373 17.9053C3.25321 18.0832 3.15927 18.0146 3.17818 18.2005C3.17972 18.2165 3.23805 18.2152 3.23305 18.3297C3.21021 18.862 3.16388 19.4419 3.15775 19.9954C3.15669 20.0709 3.25209 19.9768 3.25238 20.0854C3.25234 20.5982 3.23622 21.1604 3.18166 21.6588C3.16796 21.7812 3.10473 21.7039 3.08456 21.7296C2.96385 21.8903 3.12751 22.1253 3.13099 22.1649C3.19322 23.081 3.02338 23.7781 3.07671 24.7116C3.08039 24.7633 3.25413 25.1565 3.09388 25.3272C3.08319 25.3389 2.91961 25.5078 3.02551 25.6624C3.03217 25.672 3.1174 25.5673 3.10506 25.754C3.09259 25.9411 3.14072 26.2441 3.0445 26.4997C3.01411 26.5806 2.85009 26.7702 2.97241 27.0162C2.98127 27.0327 3.26062 27.414 3.05874 27.5438C3.02494 27.5646 2.81533 27.5389 2.91685 27.8309C2.93665 27.8865 2.98622 27.7875 3.01241 27.9339C3.03362 28.0522 3.02659 28.1902 3.02767 28.3347C3.20713 28.3482 3.38663 28.3646 3.56229 28.3987C3.70853 28.427 3.62501 28.5345 3.77658 28.5766C3.92832 28.6187 4.23559 28.6715 4.40054 28.6319C4.56549 28.5922 4.40375 28.3978 4.64621 28.4016C5.70038 28.4183 6.7319 28.6039 7.77859 28.6989C7.93368 28.713 7.81008 28.6377 8.03873 28.6537C8.88346 28.7129 10.346 28.7636 11.0684 28.9567C11.6471 29.1114 10.9025 29.1391 11.3477 29.2179C11.5625 29.2555 11.813 29.0626 11.8657 29.0599C12.3811 29.0315 12.7292 29.1517 13.1908 29.1579C13.2853 29.1589 13.1995 29.0673 13.2798 29.0691C13.5568 29.0752 13.8445 29.1356 14.1086 29.1486C14.2268 29.1541 14.2104 29.0872 14.3187 29.1005C14.5781 29.1315 14.8064 29.1763 15.0554 29.2565C15.0773 29.2641 14.9164 29.3331 15.1079 29.3507C15.4193 29.379 15.802 29.4685 16.1654 29.4335C16.2732 29.4228 16.2888 29.2746 16.5096 29.3945C16.556 29.4196 16.4813 29.5935 16.7594 29.4594C16.8068 29.4369 17.2698 29.2634 17.4792 29.4141C17.5345 29.4539 17.6716 29.6113 17.8013 29.598C17.8184 29.5952 17.7558 29.5106 17.8615 29.5106C18.2372 29.5128 18.6291 29.5509 19.015 29.555C19.1174 29.5557 18.9717 29.4615 19.1249 29.4655C19.5467 29.4765 20.0697 29.5376 20.4786 29.5947C20.6289 29.6158 20.5201 29.6762 20.5298 29.6847C20.6978 29.8195 20.8153 29.6639 20.8749 29.6588C21.2451 29.6294 21.5179 29.7274 21.8567 29.7326C21.9498 29.7343 21.8906 29.651 21.909 29.645C22.1061 29.5916 21.9531 29.721 22.0731 29.7458C22.4106 29.8154 22.7912 29.838 23.1365 29.8542C23.2632 29.86 23.1283 29.7588 23.2415 29.7649C23.9149 29.8003 24.6134 29.862 25.2657 29.9616C25.3884 29.9805 25.3068 30.0439 25.3311 30.0618C25.5 30.1864 25.7708 30.0546 25.832 30.0445C26.003 30.0164 26.1072 30.0329 26.2185 30.0507C26.1884 29.3692 26.1693 28.6918 26.1522 28.1088C26.1095 26.6609 26.1176 25.5345 26.0286 24.1562C26.0227 24.0694 25.9348 24.1615 25.9288 24.0862C25.8557 23.1121 25.8422 22.1499 25.7646 21.1741C25.7583 21.0944 25.6768 21.2135 25.6639 21.0851C25.6368 20.8218 25.6235 20.4865 25.6377 20.2181C25.6447 20.0884 25.7288 20.2579 25.7341 20.1264C25.7465 19.8199 25.7359 19.4925 25.7055 19.1799C25.6923 19.0472 25.6128 19.2521 25.6028 19.0788C25.5324 17.898 25.4569 16.7383 25.5113 15.5385C25.5156 15.4564 25.6941 15.3744 25.65 15.2024C25.5986 15.192 25.5389 15.1962 25.4844 15.1933C25.3657 13.4752 25.3405 11.7696 25.2606 10.0447C25.257 9.97251 25.1671 10.1019 25.1599 9.96172C25.1189 9.14693 25.0511 8.35669 25.1041 7.51832C25.1095 7.4354 25.2813 7.46788 25.2429 7.22573C25.2356 7.17978 25.1942 6.8167 25.1524 6.72423C25.1448 6.71353 25.0704 6.78168 25.0618 6.66554C25.014 5.97892 24.9941 5.25686 25.0071 4.56828C25.0095 4.45782 25.1008 4.57052 25.1031 4.49141C25.119 3.92982 25.0228 3.32471 25.0719 2.78632L25.0724 2.78342C25.0592 2.78608 25.0447 2.78634 25.0306 2.79169ZM22.0895 30.9968C22.0211 31.0466 22.0398 31.1804 22.1933 31.1416C22.201 31.1388 22.2118 31.0669 22.2155 31.0255C22.1723 31.0162 22.1302 31.0071 22.0895 30.9968ZM2.8835 14.0145C2.87666 14.0578 2.86973 14.0999 2.86176 14.1406C2.9146 14.2072 3.0475 14.1825 3.00054 14.0309C2.99695 14.0234 2.92498 14.016 2.8835 14.0145Z" fill="black"/>
</g>
<defs>
<filter id="filter0_g_56_1428" x="0.0797851" y="0.0363281" width="29.0226" height="32.9503" filterUnits="userSpaceOnUse" color-interpolation-filters="sRGB">
<feFlood flood-opacity="0" result="BackgroundImageFix"/>
<feBlend mode="normal" in="SourceGraphic" in2="BackgroundImageFix" result="shape"/>
<feTurbulence type="fractalNoise" baseFrequency="0.033333335071802139 0.033333335071802139" numOctaves="3" seed="1552" />
<feDisplacementMap in="shape" scale="2.4000000953674316" xChannelSelector="R" yChannelSelector="G" result="displacedImage" width="100%" height="100%" />
<feMerge result="effect1_texture_56_1428">
<feMergeNode in="displacedImage"/>
</feMerge>
</filter>
</defs>
</svg>
