<svg width="21" height="27" viewBox="0 0 21 27" fill="none" xmlns="http://www.w3.org/2000/svg">
<g style="mix-blend-mode:multiply" opacity="0.8">
<path d="M20.3782 1.66205L19.9837 25.6588C19.979 25.9017 19.908 26.1388 19.7786 26.3444C19.6491 26.5501 19.4661 26.7165 19.249 26.8258C19.032 26.9351 18.7893 26.9832 18.547 26.9648C18.3047 26.9465 18.072 26.8624 17.874 26.7216L0.740212 14.4383C0.0298164 13.9293 0.0494955 12.7321 0.776261 12.2453L18.3045 0.531812C18.5067 0.396216 18.7421 0.318622 18.9853 0.307459C19.2285 0.296295 19.4701 0.351991 19.6839 0.468493C19.8976 0.584995 20.0753 0.757849 20.1978 0.968274C20.3202 1.1787 20.3826 1.41865 20.3782 1.66205ZM3.85916 13.3921L17.3592 23.0713L17.6701 4.16188L3.85916 13.3921Z" fill="black"/>
</g>
</svg>
