<svg width="21" height="27" viewBox="0 0 21 27" fill="none" xmlns="http://www.w3.org/2000/svg">
<g style="mix-blend-mode:multiply" opacity="0.8">
<path d="M1.17613 1.38356L0.550545 25.3754C0.544972 25.6183 0.60576 25.8582 0.726359 26.0691C0.84696 26.2801 1.02281 26.4541 1.23497 26.5726C1.44714 26.691 1.6876 26.7494 1.93045 26.7413C2.17331 26.7333 2.40937 26.6591 2.61323 26.5269L20.2535 14.9828C20.9849 14.5044 21.0161 13.3074 20.3106 12.7902L3.29599 0.342467C3.09975 0.198402 2.86779 0.110872 2.6253 0.0893851C2.38281 0.0678984 2.13907 0.113277 1.92056 0.220591C1.70205 0.327906 1.51712 0.493051 1.38588 0.698084C1.25464 0.903117 1.1821 1.1402 1.17613 1.38356ZM17.1818 13.805L3.28262 22.9018L3.77558 3.99621L17.1818 13.805Z" fill="black"/>
</g>
</svg>
