<svg width="54" height="112" viewBox="0 0 54 112" fill="none" xmlns="http://www.w3.org/2000/svg">
<path d="M1.14551 0.906919C1.82382 1.4364 2.70248 2.14019 3.3459 2.69761C3.54787 2.87201 3.41642 2.81073 3.55307 2.93369C3.81923 3.17518 4.09222 3.37699 4.35048 3.62005C4.43544 3.70119 4.27051 3.65499 4.35988 3.73981C4.84742 4.20661 5.34432 4.61517 5.84573 5.08106C8.30432 7.38629 10.6859 9.68484 13.1037 12.0839C13.9034 12.8727 14.735 13.9616 15.6395 14.7036C15.7457 14.7897 15.8453 14.5874 15.877 14.5932C16.3721 14.6849 15.9534 14.8898 16.1002 15.1131C16.6846 15.998 17.4908 16.8371 18.2811 17.4775C18.6179 17.7494 18.6701 17.1157 18.7784 17.6033C18.786 17.637 18.5145 17.7404 18.5777 17.8419C18.7211 18.0723 19.1161 18.3953 19.2475 18.555C19.4993 18.8643 19.5478 18.909 19.8131 19.1764C20.1745 19.5429 20.5033 20.0726 20.942 20.4187C21.0366 20.4917 21.1455 20.1782 21.3172 20.2753C21.4892 20.3724 21.8267 20.738 21.8931 20.9052C21.9596 21.0723 21.7308 21.1868 21.7112 21.2455C21.5379 21.739 22.4232 21.7035 22.4899 21.7427C23.6574 22.5018 24.1955 23.5818 25.0866 24.4841C25.7659 25.1664 26.5943 25.8016 27.2263 26.4642C27.9782 27.2545 28.4795 28.0503 29.2474 28.7835C29.3283 28.861 29.564 28.464 29.664 28.5576C30.7263 29.5517 31.7099 30.605 32.4858 31.8558C32.5632 31.9816 32.1266 32.1314 32.1851 32.2746C32.5541 33.141 32.8872 34.7441 34.6333 33.8445C34.9989 34.3242 35.4522 34.8979 35.5413 35.5475C35.5987 35.9664 35.0132 36.0502 35.4573 36.2188C35.5572 36.2571 35.7806 35.8801 35.9073 35.9588C36.4413 36.29 36.7982 36.8616 37.3765 37.1429C37.4949 37.1993 37.7547 36.9134 37.8297 36.891C38.4457 36.7161 38.0984 37.6965 38.1205 37.8196C38.3035 38.7435 38.8536 39.0326 39.3611 39.5811C39.4786 39.7087 39.7264 39.1997 39.8538 39.3092C40.5097 39.8814 41.0982 40.5583 41.5073 41.3346C41.5972 41.5082 41.1394 41.696 41.1649 41.7951C41.2808 42.2291 41.9822 41.6995 42.1065 42.1036C42.1334 42.1881 41.811 42.4251 41.7891 42.4654C41.444 43.0975 42.2931 42.5826 42.3498 42.6105C43.0797 42.9511 42.6587 43.991 43.258 44.4182C43.3306 44.4684 43.5706 43.9811 43.7523 44.1432C44.965 45.2206 46.0347 46.5571 46.8219 48.0063C46.9448 48.2311 46.5372 48.3669 46.5126 48.411C46.1346 49.1085 46.9864 48.5442 47.0698 48.5774C47.7075 48.858 47.4917 49.8717 48.6733 49.3691C49.9098 51.1844 51.6563 52.5164 52.8273 54.3722L53.966 55.6016L52.8273 56.831C52.8273 56.831 52.8273 56.831 52.8273 56.831C52.3937 57.1534 51.9256 57.4434 51.407 57.6861C51.3746 57.7026 51.0475 57.3163 50.9843 57.3506C50.2199 57.7601 50.9 58.1754 51.2306 59.2212C51.3132 59.484 50.1851 59.0058 50.0983 58.9755C49.7789 58.8624 49.326 58.2533 49.2512 58.2453C48.652 58.1965 50.5034 59.8288 50.1623 60.1957C50.1486 60.2043 49.8605 59.8478 49.7987 59.8479C49.6058 59.8473 49.6498 60.0646 49.4482 60.0521C48.9837 60.0206 48.0353 59.2843 48.242 60.0848C48.2697 60.1875 49.3526 61.0728 48.9988 61.3548C48.857 61.4665 48.3354 62.0592 48.1181 62.1595C47.9012 62.2597 47.6761 61.8444 47.6511 61.8427C46.8106 61.8757 46.7846 61.5439 45.9394 61.1676C45.0973 60.7941 46.679 62.1464 46.7662 62.3929C46.8528 62.6391 46.1977 62.6273 46.0007 62.591C45.8036 62.5545 45.6867 62.2641 45.5516 62.2689C44.6635 62.3078 46.1175 63.1712 46.2165 63.5467C46.4511 64.4333 45.0647 63.6704 44.6493 63.8984C44.5368 63.96 44.8598 64.1239 44.8098 64.2252C44.608 64.6229 44.0835 64.4888 44.0698 65.1413C44.0677 65.2482 44.4669 66.1556 43.8012 65.8871C43.7058 65.848 43.4989 65.5163 43.3121 65.5925C43.0327 65.7059 42.6372 66.0103 42.529 66.3103C42.4493 66.5318 43.0726 66.7706 42.7451 66.8391C42.5994 66.8694 42.4876 66.4595 42.2362 66.5372C41.9858 66.6141 41.6028 67.0489 41.4615 67.2186C41.3209 67.3882 41.7445 67.6164 41.7554 67.6508C41.8138 67.8515 41.6887 68.3113 41.6626 68.338C40.4104 69.7439 38.6589 70.4876 37.5897 71.9953C37.505 72.1129 37.9161 72.3631 37.9068 72.3843C37.7126 72.8756 37.0619 71.7437 36.5212 71.7118C37.2537 72.3224 36.9884 72.3535 36.8273 72.677C36.7501 72.8334 37.0815 73.0162 37.0986 73.0529C37.3363 73.6108 36.6903 73.2477 36.5526 73.1808C36.0449 72.9342 36.3892 73.4967 36.0491 73.3339C35.7116 73.1735 35.4988 72.6261 35.278 72.875C35.4606 73.1713 36.2735 73.5877 36.2044 73.8678C35.941 74.9226 34.214 75.7475 33.6403 76.2604C33.0647 76.7695 32.9384 76.989 32.5479 77.2347C31.8435 77.6791 32.4975 77.8829 32.3566 78.4336C32.2134 78.9841 31.2849 77.7919 30.9994 77.6257C30.7158 77.4594 30.9059 77.7407 30.7169 77.6856C30.5285 77.6307 30.4966 77.3424 30.3093 77.4499C30.1228 77.5584 30.1576 78.3596 30.3497 78.6373C30.7583 79.2265 31.473 79.5419 30.9056 79.7606C30.8728 79.773 30.6605 79.4375 30.5492 79.4983C29.6757 79.9909 28.9827 80.7013 28.1463 81.2267C28.031 81.2987 27.8099 80.934 27.7397 80.9731C27.0096 81.3805 27.7085 81.6404 27.964 82.471C27.2916 81.7148 26.6755 81.4726 26.2671 81.9167C26.0206 82.1828 26.3804 82.4309 26.4436 82.8093C26.4626 82.9227 26.0719 82.9107 26.1881 83.0817C26.5655 83.6403 27.2718 83.965 26.6251 84.2139C26.5961 84.2243 26.3943 83.919 26.3134 83.9725C25.7903 84.3189 26.2356 84.8308 25.8334 85.3565C25.5175 85.7678 24.5839 86.1552 24.1312 86.5375C23.3874 85.8317 23.1853 86.4016 23.5378 87.0353C23.2528 87.2916 22.9953 87.6149 22.6713 87.8176C22.5601 87.8877 22.4095 87.6345 22.3759 87.6252C21.8558 87.4781 22.2229 88.0443 22.1839 88.1205C21.7456 88.9315 20.8961 89.1362 20.6422 90.0626C20.6337 90.0959 21.0629 90.5602 20.5656 90.4101C20.5325 90.3995 20.5166 90.0012 20.2232 90.2759C19.9277 90.5486 19.1697 90.8766 18.991 91.4697C18.9484 91.6139 19.062 92.1835 18.5981 92.1265C18.5359 92.1185 18.4402 91.9755 18.3355 91.9503C18.0017 91.8728 18.3679 92.3384 17.8666 92.1465C17.365 91.9542 16.8249 92.0204 16.692 92.6623C16.6873 92.6824 16.9236 93.0823 16.7975 93.2061C16.5966 93.4042 16.2583 93.636 16.0607 93.8541C15.9661 93.9585 16.2211 94.0718 16.208 94.093C15.6645 94.8807 15.0302 95.212 14.2725 95.8934C14.1349 96.0194 14.0008 96.6239 13.5717 96.7173C13.1057 96.8246 12.559 95.7644 12.164 96.6374C12.012 96.9963 12.6641 98.2329 11.7224 98.2587C10.9743 99.3072 9.9589 99.9773 9.24354 101.061C9.21154 101.11 9.29665 101.437 9.19972 101.532C9.05641 101.673 8.88627 101.666 8.78261 101.766C8.34625 102.182 8.04631 102.654 7.63712 103.066C7.48249 103.223 7.4515 103.089 7.26938 103.279C7.08837 103.469 7.07241 103.693 6.78053 103.907C6.55918 104.069 6.18253 104.086 5.92873 104.337C6.10524 104.519 5.93719 104.697 5.6875 105.059C5.63935 105.129 5.76013 105.118 5.74026 105.154C5.6596 105.299 5.50893 105.362 5.43564 105.503C5.4176 105.537 5.47149 105.589 5.45949 105.62C5.35745 105.878 4.93967 106.072 4.87185 106.109C4.60554 106.244 4.57914 106.399 4.4037 106.529C4.23055 106.662 4.41562 106.395 4.22995 106.565C3.84715 106.92 3.40849 107.424 3.05243 107.815C2.91088 107.971 3.05004 107.904 3.0308 107.927C2.74291 108.255 2.41022 108.547 2.30964 108.783C1.942 108.855 2.14611 108.99 1.68538 109.413C1.64902 109.446 1.55214 109.441 1.66709 109.291C1.78121 109.14 1.99102 108.945 2.14612 108.732C2.18463 108.683 2.33568 108.34 2.35936 108.296C2.55634 107.962 2.73491 108.054 2.75712 108.047C2.99718 107.96 3.18227 107.54 3.24525 107.443C3.54794 107.012 3.8628 106.699 4.11391 106.337C4.27796 106.099 4.14413 105.937 4.28811 105.765C4.76145 105.187 5.18889 105.229 5.40992 104.476C5.45627 104.313 5.14676 104.231 5.65158 103.963C5.68153 103.944 6.09991 103.786 6.14009 103.507C6.14481 103.472 6.07501 103.409 6.09296 103.373C6.21402 103.135 6.37719 103.052 6.5234 102.806C6.66931 102.56 6.83174 102.251 7.05581 102.023C7.19006 101.885 7.49762 101.833 7.59494 101.798C7.87178 101.699 7.86415 101.312 8.10538 101.315C8.35221 101.322 8.35491 101.758 8.73196 101.526C8.51001 101.299 8.29426 101.05 8.07473 100.812C8.66246 100.082 9.32253 99.4397 9.90221 98.6983C9.97347 98.6058 9.74925 98.5602 9.8209 98.4567C10.122 98.0188 10.5204 97.7618 10.8161 97.2923C11.0444 96.9284 11.153 96.398 11.3764 96.0032C11.9121 96.1319 12.1997 95.5055 12.5318 95.1646C12.6488 95.0457 12.7473 95.1521 12.857 95.0922C13.2698 94.865 12.7825 94.6993 12.8031 94.5513C12.8873 93.9123 13.735 94.6361 14.1186 94.1461C14.1406 94.1218 13.9429 93.3912 13.9473 93.32C13.9811 92.8722 14.1437 93.4226 14.3173 93.2836C14.6343 93.0298 14.9285 92.9219 15.0887 92.4281C15.1359 92.2846 15.0385 91.7451 15.4444 91.7574C15.4978 91.759 15.6487 91.9253 15.6764 91.9124C16.1659 91.6688 15.6553 91.1775 15.659 90.7826C15.6614 90.3865 16.3116 90.3735 16.4792 90.4035C16.911 90.4758 16.4804 90.6555 16.4994 90.6909C16.7236 91.107 16.8806 90.8037 17.0713 90.6374C17.628 91.1035 17.8302 90.8112 17.267 90.4633C17.2054 90.4259 17.1285 90.6215 17.0713 90.6374C16.6921 89.9852 16.8588 89.6127 17.6377 89.7521C18.0036 89.8185 18.1572 90.2184 18.455 89.6665C18.5899 89.4159 18.1334 89.1382 18.184 88.8536C18.2963 88.2003 19.1292 87.9878 19.4427 87.4975C19.5552 87.3183 19.2009 87.2661 19.2694 87.1359C19.4491 86.7885 19.8329 86.6907 19.9882 86.3184C20.0018 86.2843 19.7076 86.1261 19.7794 86.0321C20.3178 85.314 20.9722 84.8606 21.5755 84.149C21.867 83.8052 22.2393 83.0527 22.5668 82.7201C23.1313 82.1409 24.1697 81.747 24.5228 81.1326C24.7528 80.7316 24.4109 80.5497 24.3451 80.2256C24.2134 79.5958 25.3004 79.704 25.4642 79.7347C25.4696 79.736 25.2845 80.093 25.5641 80.07C25.9455 80.2593 25.4629 79.7395 25.4642 79.7347C25.5687 79.7521 26.1375 79.2234 26.1826 79.0556C26.2069 78.9641 25.9034 78.7468 25.921 78.7037C26.3451 77.6851 26.9355 76.8181 27.7477 76.1389C27.7654 76.1301 28.0667 76.4471 28.1045 76.4229C28.6431 76.0931 28.5039 75.4335 28.5907 74.8304C28.6781 74.228 29.0109 73.9942 29.7715 74.2942C29.9463 73.9405 30.5525 73.7622 30.9124 73.6699C31.2724 73.5776 30.6469 72.9389 30.6517 72.9059C30.7945 71.8699 31.4919 71.8405 32.1347 71.2238C32.4409 70.9312 32.8927 70.2067 33.1178 69.7913C33.2946 69.4619 33.5976 69.4455 33.7136 69.0987C33.7295 69.0519 33.3944 68.8036 33.3916 68.7823C33.2688 68.1615 33.8995 68.9894 34.0835 69.0551C34.7523 69.295 35.1275 69.408 35.2132 68.8381C35.234 68.7076 34.3576 67.4595 34.424 67.248C34.5133 66.9758 34.8403 67.4126 34.9244 67.1188C34.9319 67.094 34.6869 66.8736 34.8077 66.7561C35.3651 66.2077 36.0671 65.697 36.5775 65.0632C36.6481 64.9774 36.164 64.7228 36.2592 64.5926C36.7064 63.9821 37.2621 63.3736 37.9311 62.9949C38.0971 62.9029 38.2999 63.2449 38.4082 63.2918C39.0665 63.574 38.5673 62.6473 38.5902 62.5919C39.127 61.2612 40.472 61.108 41.0669 59.796C41.0983 59.7237 40.6862 58.5614 41.5374 59.0016C41.5942 59.0304 42.4607 59.4884 42.1333 58.8805C42.1127 58.8425 41.6482 58.6269 41.8685 58.4563C42.0888 58.2857 42.1438 57.7335 42.793 57.8198C42.9977 57.8464 43.8871 58.2848 43.5691 57.5038C43.5462 57.4509 42.6524 55.8722 43.6562 56.5339C43.8211 56.6432 44.7216 57.5228 44.5351 56.7695C44.498 56.6243 44.1926 56.5427 44.2081 56.2649C44.2306 55.8381 44.7714 55.7457 44.6312 55.0655C44.6057 54.9459 44.1788 54.1419 44.8181 54.4064C44.9182 54.4478 45.1793 54.7871 45.2996 54.7254C45.8732 54.4337 46.0935 53.776 46.7232 53.5235C46.9456 53.4336 47.3714 53.9793 47.6591 53.9373C47.9468 53.8951 48.3855 53.6798 48.3174 53.2938C48.2491 52.9077 47.2745 52.3578 47.4517 52.0381C47.4744 51.9971 47.4978 51.9567 47.5218 51.9169V59.2863C47.5218 59.2863 47.5218 59.2863 47.5218 59.2863C46.2772 58.399 45.7169 56.8954 44.7755 55.7292C44.6317 55.5509 44.4745 55.9548 44.2424 55.7106C43.3843 54.8131 41.6867 53.4635 41.567 52.1059C41.469 51.02 42.5601 51.4901 42.313 50.8199C42.1919 50.4981 41.0499 51.0865 40.9703 51.0555C40.179 50.7652 40.2344 50.0028 39.662 49.612C39.5438 49.5313 39.2685 49.9729 39.1721 49.9003C38.8401 49.655 38.721 49.1842 38.4349 48.9209C38.3058 48.8035 38.0492 49.0849 37.9651 48.9446C37.7607 48.6121 37.6544 48.2492 37.6667 47.7291C37.6677 47.6818 38.1629 47.5358 37.9881 47.3116C37.7047 46.9493 37.581 46.2883 36.9712 46.1342C36.7892 46.0895 36.1617 46.6624 36.3709 46.0101C36.4144 45.8736 37.2206 45.2496 36.3169 45.5525C36.1651 45.6033 34.8681 45.9074 35.2144 45.1464C35.3053 44.946 35.7674 44.2215 35.5482 44.1681C35.5163 44.1629 35.2531 44.5459 35.1186 44.458C34.6506 44.1424 34.3086 43.6741 33.8379 43.3405C33.7117 43.2519 33.5207 43.7348 33.344 43.5923C32.8577 43.2004 32.4442 42.5318 32.1566 41.9746C32.0512 41.7686 32.4249 41.6323 32.4443 41.5922C32.7592 40.9452 32.0051 41.4337 31.9115 41.4024C31.3361 41.2019 31.3763 40.6062 30.9752 40.3017C30.8656 40.2166 30.6218 40.5747 30.5769 40.5791C30.1288 40.609 30.8138 40.2615 30.7589 40.0685C30.6067 39.5265 30.2205 39.1229 29.8558 38.77C29.7214 38.6408 29.5074 39.1241 29.3913 39.004C28.6983 38.2983 28.0788 37.4711 27.649 36.5541C27.5686 36.3809 27.9001 36.2297 27.935 36.1458C28.1795 35.5636 27.3718 35.7904 27.2635 35.7708C26.7658 35.6863 26.893 35.3566 26.6257 35.1225C25.3201 33.9788 24.1259 32.1796 23.1822 30.8326C21.9562 29.0738 21.1226 27.6 19.7979 26.0669C19.7142 25.969 19.5194 26.3264 19.4443 26.2447C18.4908 25.1756 17.7217 23.9659 16.7663 22.8945C16.6887 22.8058 16.5575 23.1588 16.4261 23.0229C16.1551 22.7454 15.8716 22.3384 15.706 21.9575C15.6245 21.7724 15.9744 21.7979 15.8874 21.6161C15.6847 21.193 15.4033 20.7988 15.0863 20.465C14.9513 20.323 14.9112 20.763 14.7542 20.5614C13.6778 19.1942 12.6383 17.8351 11.8146 16.209C11.7586 16.0971 12.059 15.6751 11.8305 15.5386C11.7185 15.6161 11.6015 15.7258 11.4895 15.8181C9.91105 13.8385 8.52457 11.7162 7.01383 9.66426C6.95068 9.57725 6.937 9.84139 6.81539 9.67231C6.10867 8.69637 5.41105 7.75918 4.7771 6.67852C4.71378 6.57168 4.9025 6.48179 4.66209 6.2168C4.61951 6.17023 4.27393 5.75583 4.16221 5.66941C4.14676 5.65793 4.14297 5.79544 4.0387 5.65534C3.4337 4.84032 2.82961 3.95851 2.25395 3.1187C2.16087 2.98332 2.30027 3.09018 2.23344 2.99426C1.75253 2.32013 1.19837 1.61565 0.736898 0.973283C0.423868 0.54714 0.558168 0.687861 0.39069 0.462467C0.366622 0.43094 0.156282 0.182344 0.146926 0.168079C0.121933 0.132358 0.23917 0.238549 0.200808 0.185952C0.194213 0.17768 6.16016e-05 1.95508e-05 0 0C0 0 0 0 0 0C3.1078e-05 -6.21597e-06 0.0168525 0.0154674 0.0610462 0.0545297C0.0743452 0.0667747 0.312535 0.276703 0.374308 0.32553C0.417314 0.359528 0.34709 0.291525 0.434804 0.360921C0.523389 0.429497 0.611259 0.513629 0.757295 0.628102C0.904466 0.741413 0.853666 0.678703 1.14551 0.906919ZM32.5365 73.2574C33.0475 73.3366 31.9087 72.2236 31.9816 72.7175C31.9865 72.7426 32.511 73.2541 32.5365 73.2574ZM9.67408 99.7725C10.1305 99.6799 9.98728 99.1946 9.65233 99.2479C9.32273 99.3061 9.5379 99.8033 9.67408 99.7725ZM7.24305 102.864C7.6625 102.651 7.18301 102.112 6.9886 102.577C6.97722 102.604 7.21896 102.877 7.24305 102.864ZM1.23654 1.44365C1.23485 1.43978 1.08312 1.26156 1.07873 1.25802C0.980823 1.17897 1.27887 1.54028 1.23654 1.44365ZM4.76902 105.875C4.90744 105.816 5.11911 105.47 4.94534 105.543C4.80767 105.604 4.59947 105.952 4.76902 105.875ZM44.0114 63.3241C44.0337 63.3385 44.1648 63.2315 44.0538 63.1332C43.6958 62.8172 43.6366 63.0804 44.0114 63.3241ZM0.358518 110.803C0.999585 110.065 1.49417 109.716 0.734977 110.462C0.600003 110.6 1.00985 110.151 0.834725 110.323C0.523111 110.646 0.328936 110.872 0.00582685 111.197C-0.0485725 111.26 0.324645 110.847 0.359647 110.801C0.359274 110.802 0.358892 110.802 0.358518 110.803ZM34.0472 74.4297C34.0666 74.4397 34.239 74.2831 34.2274 74.2648C33.9415 73.8286 33.5958 74.1457 34.0472 74.4297ZM51.4693 56.8974C51.5151 56.9223 51.9159 56.5594 51.8937 56.5149C51.4011 55.6757 50.589 56.4077 51.4693 56.8974ZM24.1048 86.5256C24.2249 86.9821 24.0441 87.2275 23.539 87.0348C23.7327 86.8712 23.9112 86.6912 24.1048 86.5256Z" fill="white"/>
</svg>
