<svg width="66" height="66" viewBox="0 0 66 66" fill="none" xmlns="http://www.w3.org/2000/svg">
<path d="M33 16.0407C29.6487 16.0407 26.3727 17.0335 23.5863 18.8936C20.7998 20.7537 18.628 23.3976 17.3455 26.4908C16.0631 29.5841 15.7275 32.9878 16.3813 36.2716C17.0351 39.5554 18.6489 42.5717 21.0186 44.9392C23.3883 47.3067 26.4075 48.9189 29.6943 49.5721C32.9812 50.2253 36.3881 49.8901 39.4843 48.6088C42.5804 47.3275 45.2268 45.1578 47.0886 42.3739C48.9505 39.5901 49.9443 36.3171 49.9443 32.969C49.9497 30.7444 49.5152 28.5407 48.6656 26.4844C47.816 24.4281 46.5681 22.5598 44.9936 20.9867C43.4191 19.4137 41.549 18.167 39.4907 17.3182C37.4325 16.4694 35.2267 16.0352 33 16.0407ZM33 43.9931C30.8176 43.9931 28.6842 43.3466 26.8696 42.1352C25.055 40.9239 23.6407 39.2022 22.8055 37.1878C21.9703 35.1734 21.7518 32.9568 22.1776 30.8183C22.6033 28.6799 23.6543 26.7156 25.1975 25.1738C26.7407 23.6321 28.7068 22.5821 30.8473 22.1568C32.9878 21.7314 35.2064 21.9497 37.2227 22.7841C39.239 23.6185 40.9623 25.0315 42.1748 26.8444C43.3873 28.6573 44.0344 30.7887 44.0344 32.969C44.0344 35.8928 42.8719 38.6968 40.8025 40.7642C38.7332 42.8316 35.9265 43.9931 33 43.9931ZM54.6143 15.3388C54.6143 16.1554 54.3719 16.9536 53.9178 17.6326C53.4637 18.3116 52.8182 18.8408 52.0631 19.1533C51.3079 19.4658 50.4769 19.5476 49.6753 19.3883C48.8736 19.229 48.1372 18.8357 47.5592 18.2583C46.9813 17.6809 46.5877 16.9452 46.4282 16.1443C46.2687 15.3433 46.3506 14.5132 46.6634 13.7587C46.9762 13.0043 47.5059 12.3594 48.1855 11.9057C48.8651 11.452 49.6641 11.2099 50.4815 11.2099C51.5776 11.2099 52.6288 11.6449 53.4038 12.4192C54.1789 13.1935 54.6143 14.2437 54.6143 15.3388ZM65.814 19.4676C65.9388 14.3339 64.0217 9.36015 60.4828 5.63591C58.6469 3.86292 56.4792 2.46896 54.1035 1.53377C51.7279 0.598586 49.1911 0.140527 46.6381 0.185799C41.2655 -0.0619331 24.7345 -0.0619331 19.3619 0.185799C14.2258 0.0746878 9.25228 1.98806 5.51722 5.51204C1.97832 9.23628 0.0612402 14.2101 0.185974 19.3438C-0.0619912 24.7113 -0.0619912 41.2268 0.185974 46.5943C0.0612402 51.728 1.97832 56.7018 5.51722 60.426C9.25228 63.95 14.2258 65.8634 19.3619 65.7523C24.8172 66.0826 41.1828 66.0826 46.6381 65.7523C51.7766 65.8769 56.755 63.9616 60.4828 60.426C64.0217 56.7018 65.9388 51.728 65.814 46.5943C66.062 41.2268 66.062 24.7113 65.814 19.3438V19.4676ZM58.7883 52.4986C58.2272 53.9187 57.3801 55.2085 56.2996 56.288C55.219 57.3676 53.928 58.2139 52.5066 58.7745C46.0909 60.0703 39.5321 60.5146 33 60.0957C26.4817 60.5109 19.937 60.0667 13.5348 58.7745C12.1133 58.2139 10.8223 57.3676 9.74176 56.288C8.66119 55.2085 7.81409 53.9187 7.25297 52.4986C5.51722 48.122 5.88917 37.7998 5.88917 33.0103C5.88917 28.2208 5.51722 17.8574 7.25297 13.5221C7.79826 12.088 8.63931 10.7845 9.72152 9.69614C10.8037 8.60783 12.1029 7.75905 13.5348 7.20488C19.937 5.91263 26.4817 5.4684 33 5.88364C39.5321 5.46475 46.0909 5.909 52.5066 7.20488C53.928 7.76547 55.219 8.61178 56.2996 9.69133C57.3801 10.7709 58.2272 12.0607 58.7883 13.4808C60.5241 17.8574 60.1108 28.1795 60.1108 32.969C60.1108 37.7585 60.5241 48.122 58.7883 52.4573V52.4986Z" fill="black"/>
</svg>
