<svg width="46" height="46" viewBox="0 0 46 46" fill="none" xmlns="http://www.w3.org/2000/svg">
<path d="M35.65 0H10.35C4.63335 0 0 4.63335 0 10.35V35.65C0 41.3666 4.63335 46 10.35 46H35.65C41.3666 46 46 41.3666 46 35.65V10.35C46 4.63335 41.3666 0 35.65 0ZM38.1685 18.6921C38.916 18.3713 39.8015 18.3275 40.549 18.5529C40.8595 18.6495 41.1355 18.7784 41.4 18.9382V20.3527C40.572 19.7846 39.6175 19.6236 38.8815 20.0203C38.0995 20.4493 37.6395 21.3486 37.6625 22.2916C37.651 23.3312 37.996 24.2949 38.7205 24.7445C39.3645 25.1838 40.3765 25.1839 41.4 25.0229V26.2016C40.9975 26.3304 40.572 26.4051 40.135 26.4477C39.4105 26.5017 38.6055 26.3936 37.8925 26.0084C37.168 25.6335 36.639 24.9803 36.34 24.3259C36.0525 23.6509 35.949 22.9655 35.9375 22.3111C35.903 20.9196 36.6505 19.3556 38.1685 18.6921ZM33.35 14.9615C33.9848 14.9615 34.5 15.4767 34.5 16.1115C34.5 16.7463 33.9848 17.2615 33.35 17.2615C32.7152 17.2615 32.2 16.7463 32.2 16.1115C32.2 15.4767 32.7152 14.9615 33.35 14.9615ZM34.2125 18.4115V26.4615H32.4875V18.4115H34.2125ZM25.3 24.3512C26.036 24.6514 26.933 24.963 27.6345 25.0297C28.336 25.1079 29.1065 25.0182 29.555 24.7733C29.7735 24.6399 29.8195 24.4536 29.8195 24.2466C29.8195 24.0396 29.7781 23.9223 29.678 23.767C29.4952 23.4841 28.9915 23.2702 28.198 23.0805C27.807 22.9689 27.3815 22.8574 26.91 22.6021C26.4385 22.3905 25.4805 21.6223 25.6668 20.3125C25.7669 19.6121 26.4925 18.9267 27.508 18.607C28.6913 18.2332 29.9805 18.4184 31.05 18.9302V20.355C30.0955 19.8651 28.957 19.6179 27.991 19.9398C27.7035 20.0284 27.324 20.2285 27.324 20.5884C27.324 21.4521 28.3245 21.6154 28.704 21.7384C29.095 21.8603 29.5205 21.9719 29.9805 22.2053C30.4405 22.4284 31.3628 22.985 31.3628 24.2558C31.3628 25.4725 30.7625 25.9198 30.268 26.1199C29.2445 26.565 28.336 26.4868 27.4505 26.3649C26.703 26.2315 25.9785 26.0084 25.3 25.5863V24.3512ZM17.5375 18.4138L19.2625 18.4115L19.2659 21.1945C19.282 22.103 19.2798 23.0931 19.2694 23.9349C19.2292 24.3846 19.7317 24.909 20.3918 24.9895C20.7437 25.0286 21.0059 24.9998 21.4107 24.8285C21.6499 24.7342 21.8937 24.6537 22.1375 24.5697V18.4115L23.8625 18.4126V26.2533H22.1375V25.982C22.0903 26.0072 22.0455 26.0348 21.9995 26.059C21.5613 26.3212 20.8587 26.5029 20.2584 26.4534C19.6351 26.4132 19.0072 26.1947 18.4954 25.7795C17.9872 25.3701 17.6031 24.7273 17.5536 24.0212C17.5225 23.0092 17.5306 22.1421 17.541 21.1957L17.5375 18.4138ZM4.8875 18.4115H6.6125V19.2027C7.038 19.0486 7.46005 18.8876 7.88785 18.7416C8.5031 18.5231 9.27475 18.5667 9.8808 18.9037C10.1315 19.0382 10.3511 19.228 10.5443 19.443C11.1906 19.2038 11.8358 18.9635 12.4867 18.7404C13.1019 18.5219 13.8736 18.5656 14.4796 18.9025C15.0914 19.2314 15.5675 19.8329 15.7366 20.5332C15.7814 20.708 15.801 20.8851 15.8113 21.0634L15.816 21.4279L15.8229 22.1467L15.816 23.5842L15.8125 26.4592H14.0875L14.0806 20.8886C14.0323 20.3998 13.4838 19.972 12.9088 20.1285C12.3223 20.2837 11.7311 20.4217 11.1412 20.5643C11.1803 20.7288 11.201 20.8944 11.2113 21.0623L11.216 21.4268L11.2228 22.1455L11.216 23.583L11.2125 26.458H9.4875L9.4806 20.8874C9.4323 20.3976 8.88375 19.9709 8.30875 20.1273C7.7464 20.2768 7.1783 20.409 6.6125 20.5459V26.4569H4.8875V18.4115ZM38.8332 33.2718C36.2871 35.0773 33.442 36.2675 30.4555 37.0403C27.4712 37.8028 24.3639 38.0914 21.2715 37.8787C18.1803 37.6717 15.1616 36.9173 12.3165 35.8156C9.4806 34.6771 6.79995 33.2132 4.43095 31.295C4.3079 31.1949 4.28835 31.0132 4.3884 30.8902C4.47695 30.7809 4.62875 30.7533 4.74835 30.8177L4.76445 30.8269C7.3508 32.2264 10.1154 33.2982 12.8915 34.1493C15.6894 34.945 18.5368 35.5143 21.4015 35.6305C24.2593 35.7305 27.1481 35.5074 29.9678 34.9209C32.7761 34.3413 35.6086 33.4995 38.2133 32.3001L38.2582 32.2794C38.5469 32.1471 38.8872 32.2724 39.0206 32.5611C39.1402 32.8175 39.0551 33.1154 38.8332 33.2718ZM40.1143 36.6758C39.7946 36.9173 39.4749 36.8368 39.6348 36.4343C40.1143 35.1463 41.1527 32.4081 40.6732 31.7641C40.1143 31.0396 37.2382 31.4421 35.9605 31.6031C35.5615 31.6031 35.5615 31.2811 35.8811 31.0396C36.999 30.2346 38.5169 29.9126 39.7957 29.9126C41.0734 29.9126 42.1923 30.1541 42.4315 30.5566C42.8294 31.0385 42.2705 34.8231 40.1143 36.6758Z" fill="black"/>
</svg>
