<svg width="46" height="46" viewBox="0 0 46 46" fill="none" xmlns="http://www.w3.org/2000/svg">
<path d="M45.9884 11.7358C46.0038 10.323 45.8494 8.91351 45.5285 7.53759C44.9209 5.02634 43.493 3.10935 41.3501 1.7042C40.2576 1.00121 39.0337 0.52771 37.7525 0.312469C36.7619 0.141877 35.7599 0.0457585 34.7549 0.0249208C34.6782 0.0191699 34.5958 0.00575096 34.5172 0H11.4732C11.1831 0.0178919 10.8924 0.0345058 10.6011 0.0498416C9.16932 0.132272 7.74524 0.285631 6.39783 0.816636C3.83716 1.83264 1.9895 3.6001 0.906582 6.14586C0.538583 7.00467 0.346916 7.91907 0.210833 8.84498C0.10638 9.595 0.0423989 10.3501 0.0191666 11.107C0.0191666 11.1684 0.00574999 11.2259 0 11.2853V34.7166L0.0517499 35.5294C0.147583 37.0918 0.346916 38.6426 1.00433 40.0784C2.25016 42.8006 4.33549 44.5891 7.20283 45.4479C8.00782 45.6914 8.84349 45.8064 9.68107 45.885C10.7448 45.9866 11.8086 46 12.8762 46H34.017C35.023 45.9969 36.0279 45.9329 37.0261 45.8083C38.6016 45.6051 40.0851 45.1374 41.4249 44.2555C43.0136 43.2278 44.2663 41.757 45.0282 40.0248C45.3847 39.2196 45.5898 38.357 45.7374 37.4867C45.9539 36.1927 46.0019 34.8834 45.9999 33.576C45.9961 26.2915 45.9999 19.0165 45.9942 11.7358H45.9884ZM33.6777 19.3846V30.3344C33.6777 31.1338 33.5665 31.9197 33.21 32.6463C32.6542 33.7773 31.7534 34.4904 30.5497 34.8316C29.8802 35.0233 29.1966 35.1339 28.4989 35.1633C26.6781 35.2495 25.1006 34.0131 24.7748 32.2188C24.638 31.4441 24.7584 30.6458 25.1176 29.946C25.4768 29.2461 26.0551 28.683 26.7643 28.3426C27.3834 28.0359 28.0485 27.8634 28.7155 27.7215C29.44 27.5643 30.1683 27.4282 30.889 27.2615C31.4141 27.1407 31.7649 26.8206 31.8665 26.2723C31.8912 26.1505 31.904 26.0266 31.9048 25.9023C31.9048 22.4223 31.9035 18.9443 31.901 15.4682C31.9003 15.3483 31.8835 15.229 31.8511 15.1135C31.7745 14.826 31.5636 14.6477 31.2685 14.6649C30.9618 14.6841 30.659 14.732 30.358 14.7915C28.9014 15.0803 27.4447 15.3717 25.9881 15.6656L21.5318 16.5666L18.8983 17.0995L18.8063 17.1244C18.2754 17.272 18.0837 17.5136 18.0588 18.0638C18.0563 18.1443 18.0563 18.2273 18.0588 18.313C18.055 23.301 18.0588 28.289 18.0531 33.2751C18.0531 34.0802 17.963 34.8776 17.641 35.6272C17.1081 36.8541 16.1651 37.6209 14.8925 37.9908C14.2204 38.1851 13.5336 38.295 12.8321 38.3206C10.9921 38.3896 9.46832 37.1704 9.15207 35.3607C8.88374 33.8041 9.59291 32.1306 11.3639 31.383C12.0482 31.0954 12.7631 30.9382 13.4876 30.7887C14.0377 30.6737 14.5896 30.5663 15.1359 30.4494C15.8693 30.2884 16.2527 29.8321 16.2859 29.0807V28.7931L16.2897 11.7665C16.2897 11.5307 16.3146 11.2872 16.3702 11.0572C16.5044 10.5108 16.8935 10.1984 17.4167 10.0642C17.9055 9.93766 18.4038 9.84948 18.9002 9.74788C20.3058 9.46161 21.7113 9.17789 23.1169 8.89673L27.4677 8.01492L31.3202 7.24237C31.7419 7.15994 32.1674 7.07368 32.591 7.03917C33.1851 6.99125 33.5934 7.36506 33.6528 7.96316C33.6681 8.10374 33.6758 8.24624 33.6758 8.39065C33.6796 12.0534 33.6796 15.7161 33.6758 19.3788L33.6777 19.3846Z" fill="black"/>
</svg>
