<svg width="47" height="46" viewBox="0 0 47 46" fill="none" xmlns="http://www.w3.org/2000/svg">
<path fill-rule="evenodd" clip-rule="evenodd" d="M47 23C47 35.7023 36.4784 46 23.5 46C10.5216 46 0 35.7023 0 23C0 10.2977 10.5216 0 23.5 0C36.4784 0 47 10.2977 47 23ZM23.5 12.5455C20.667 12.5455 17.95 13.6469 15.9468 15.6075C13.9436 17.5681 12.8182 20.2273 12.8182 23C12.8182 25.7727 13.9436 28.4319 15.9468 30.3925C17.95 32.3531 20.667 33.4545 23.5 33.4545C26.333 33.4545 29.05 32.3531 31.0532 30.3925C33.0564 28.4319 34.1818 25.7727 34.1818 23C34.1818 20.2273 33.0564 17.5681 31.0532 15.6075C29.05 13.6469 26.333 12.5455 23.5 12.5455ZM10.6818 23C10.6818 19.6727 12.0323 16.4818 14.4362 14.129C16.8401 11.7763 20.1004 10.4545 23.5 10.4545C26.8996 10.4545 30.16 11.7763 32.5638 14.129C34.9677 16.4818 36.3182 19.6727 36.3182 23C36.3182 26.3273 34.9677 29.5182 32.5638 31.871C30.16 34.2237 26.8996 35.5455 23.5 35.5455C20.1004 35.5455 16.8401 34.2237 14.4362 31.871C12.0323 29.5182 10.6818 26.3273 10.6818 23ZM29.9091 23L19.2273 16.7273V29.2727L29.9091 23Z" fill="black"/>
</svg>
