<svg width="41" height="44" viewBox="0 0 41 44" fill="none" xmlns="http://www.w3.org/2000/svg">
<path d="M34.2207 43.8737C32.3993 43.9915 30.8097 43.4521 29.4519 42.2554C28.0941 41.0587 27.3561 39.5466 27.2379 37.7192C27.2237 37.4999 27.2452 36.9847 27.3025 36.1735L11.366 28.176C10.8186 28.762 10.1725 29.2354 9.42763 29.5963C8.68276 29.9572 7.87314 30.1651 6.99875 30.2203C5.1773 30.3381 3.58769 29.7987 2.22991 28.602C0.872139 27.4053 0.134138 25.8932 0.0159095 24.0658C-0.102319 22.2383 0.434694 20.6438 1.62695 19.2821C2.8192 17.9204 4.32605 17.1807 6.1475 17.0628C7.0218 17.0063 7.85152 17.1089 8.63668 17.3708C9.42183 17.6327 10.1235 18.0182 10.7418 18.5273L25.5149 8.54293C25.4255 8.29181 25.3644 8.0484 25.3316 7.81269C25.2988 7.57699 25.2721 7.31226 25.2517 7.01851C25.1334 5.19109 25.6704 3.59653 26.8627 2.23485C28.0549 0.873166 29.5618 0.133403 31.3832 0.0155608C33.2047 -0.102281 34.7943 0.43715 36.1521 1.63386C37.5099 2.83056 38.2479 4.34262 38.3661 6.17004C38.4843 7.99747 37.9473 9.59202 36.755 10.9537C35.5628 12.3154 34.0559 13.0551 32.2345 13.173C31.3602 13.2296 30.5305 13.1269 29.7453 12.865C28.9602 12.6031 28.2585 12.2176 27.6402 11.7086L12.8671 21.6929C12.9565 21.944 13.0184 22.1881 13.0528 22.4252C13.0871 22.6622 13.113 22.9263 13.1303 23.2173C13.1477 23.5083 13.1561 23.7742 13.1556 24.015C13.1551 24.2558 13.1251 24.5051 13.0657 24.7629L29.0022 32.7604C29.5496 32.1745 30.1958 31.7018 30.9407 31.3424C31.6857 30.983 32.4953 30.7743 33.3695 30.7162C35.1909 30.5984 36.7805 31.1378 38.1383 32.3345C39.4961 33.5312 40.2341 35.0433 40.3523 36.8707C40.4706 38.6981 39.9335 40.2927 38.7413 41.6544C37.549 43.0161 36.0422 43.7558 34.2207 43.8737Z" fill="white"/>
</svg>
