<svg width="41" height="44" viewBox="0 0 41 44" fill="none" xmlns="http://www.w3.org/2000/svg">
<path d="M20.3431 0C22.1661 0.0001727 23.6441 1.53101 23.6441 3.41938V40.5806C23.6436 42.4685 22.1657 43.9998 20.3431 44C18.5204 44 17.0426 42.4687 17.0421 40.5806V3.41938C17.0421 1.53091 18.52 0 20.3431 0Z" fill="white"/>
<path d="M11.8156 7.68915C13.6387 7.68915 15.1166 9.22005 15.1166 11.1085V32.8915C15.1165 34.7799 13.6386 36.3109 11.8156 36.3109C9.99275 36.3106 8.51468 34.7798 8.51462 32.8915V11.1085C8.51462 9.2202 9.99272 7.68938 11.8156 7.68915Z" fill="white"/>
<path d="M28.9115 7.68915C30.7345 7.68915 32.2124 9.22005 32.2124 11.1085V32.8915C32.2124 34.7799 30.7345 36.3109 28.9115 36.3109C27.0887 36.3105 25.6105 34.7797 25.6105 32.8915V11.1085C25.6105 9.22029 27.0887 7.68952 28.9115 7.68915Z" fill="white"/>
<path d="M3.30097 14.7372C5.12405 14.7372 6.60195 16.2681 6.60195 18.1565V25.8435C6.60166 27.7317 5.12387 29.2628 3.30097 29.2628C1.47808 29.2628 0.000294863 27.7317 0 25.8435V18.1565C0 16.2681 1.4779 14.7372 3.30097 14.7372Z" fill="white"/>
<path d="M37.699 14.7372C39.5221 14.7372 41 16.2681 41 18.1565V25.8435C40.9997 27.7317 39.5219 29.2628 37.699 29.2628C35.8766 29.2623 34.3983 27.7313 34.3981 25.8435V18.1565C34.3981 16.2684 35.8764 14.7377 37.699 14.7372Z" fill="white"/>
</svg>
