<svg width="66" height="66" viewBox="0 0 66 66" fill="none" xmlns="http://www.w3.org/2000/svg">
<path d="M56.3819 9.60315C53.3408 6.54771 49.719 4.12506 45.7274 2.47637C41.7359 0.827679 37.4544 -0.0140684 33.1327 0.000177853C15.0241 0.000177853 0.265327 14.6851 0.265327 32.7031C0.265327 38.4781 1.79095 44.0881 4.64322 49.038L0 66L17.4121 61.446C22.2211 64.053 27.6271 65.439 33.1327 65.439C51.2412 65.439 66 50.754 66 32.7361C66 23.9911 62.5839 15.7741 56.3819 9.60315ZM33.1327 59.895C28.2241 59.895 23.4151 58.575 19.203 56.1L18.208 55.506L7.8603 58.212L10.6131 48.18L9.94975 47.1571C7.22202 42.8244 5.77392 37.8157 5.77085 32.7031C5.77085 17.7211 18.0422 5.51116 33.0995 5.51116C40.396 5.51116 47.2613 8.34916 52.402 13.4971C54.9479 16.0179 56.9654 19.0165 58.3374 22.3191C59.7095 25.6217 60.4089 29.1625 60.395 32.7361C60.4613 47.7181 48.1899 59.895 33.1327 59.895ZM48.1236 39.5671C47.2945 39.1711 43.2482 37.1911 42.5186 36.8941C41.7558 36.6301 41.2251 36.4981 40.6613 37.2901C40.0975 38.1151 38.5387 39.9631 38.0744 40.4911C37.61 41.0521 37.1126 41.1181 36.2834 40.6891C35.4543 40.2931 32.801 39.4021 29.6834 36.6301C27.2291 34.4521 25.604 31.7791 25.1065 30.9541C24.6422 30.1291 25.0402 29.7001 25.4714 29.2711C25.8362 28.9081 26.3005 28.3141 26.6985 27.8521C27.0965 27.3901 27.2623 27.0271 27.5276 26.4991C27.793 25.9381 27.6603 25.4761 27.4613 25.0801C27.2623 24.6841 25.604 20.6581 24.9407 19.0081C24.2774 17.4241 23.5809 17.6221 23.0834 17.5891H21.4915C20.9276 17.5891 20.0653 17.7871 19.3025 18.6121C18.5729 19.4371 16.4503 21.4171 16.4503 25.4431C16.4503 29.4691 19.402 33.3631 19.8 33.8911C20.198 34.4521 25.604 42.7021 33.8291 46.2331C35.7859 47.0911 37.3116 47.5861 38.5055 47.9491C40.4623 48.576 42.2533 48.477 43.6794 48.279C45.2714 48.048 48.5548 46.2991 49.2181 44.3851C49.9146 42.4711 49.9146 40.8541 49.6824 40.4911C49.4502 40.1281 48.9528 39.9631 48.1236 39.5671Z" fill="black"/>
</svg>
